#!OML:ASF E:\emotionWalksFemale\Project 1\Capture day 1\Session 1\Female1.ASF
:FULLY-SPECIFIED
:DEGREES
1448
root 9.41641 15.5937 -3.84663 -1.86625 -3.38809 -358.359
lowerback 9.39734 1.84974 1.72848
upperback -5.59736 2.76266 0.199047
thorax -11.256 1.19901 -1.27831
lowerneck -10.4319 -3.22876 -7.17335
upperneck 22.4868 -4.41306 5.5947
head 9.03769 -2.1062 2.63683
rclavicle -2.82274e-014 -1.03368e-014
rhumerus -32.9721 4.36602 -75.5345
rradius 46.1103
rwrist 17.0043
rhand -16.092 -54.7351
rfingers 7.12502
rthumb 10.1114 -804.472
lclavicle -2.82274e-014 -1.03368e-014
lhumerus -60.0261 24.0742 36.4577
lradius 37.3598
lwrist -0.258562
lhand -13.2548 -26.2226
lfingers 7.12502
lthumb 12.8476 3.36196
rfemur -1.37119 -0.489324 20.0946
rtibia 57.7617
rfoot 16.2323 -5.915
rtoes 4.67096
lfemur -11.5218 -10.7549 -26.3447
ltibia 21.0094
lfoot -12.3841 16.012
ltoes -10.4313
1449
root 9.42729 15.5955 -3.69845 -2.15182 -3.20495 -357.737
lowerback 9.76406 1.70589 0.855554
upperback -5.38948 2.45055 0.249617
thorax -11.2905 1.1181 -0.684764
lowerneck -10.4248 -3.19169 -7.91506
upperneck 22.1177 -4.26103 5.8652
head 8.92226 -2.06852 2.86844
rclavicle 1.60022e-014 -5.1684e-015
rhumerus -33.5485 4.32097 -75.3097
rradius 44.827
rwrist 17.0947
rhand -15.773 -55.2251
rfingers 7.12502
rthumb 10.4191 -804.947
lclavicle 1.60022e-014 -5.1684e-015
lhumerus -59.5404 24.4278 37.583
lradius 37.4376
lwrist -0.3837
lhand -13.7026 -26.6296
lfingers 7.12502
lthumb 12.4159 2.98165
rfemur -2.94403 -0.854691 19.216
rtibia 60.7146
rfoot 16.2015 -6.29262
rtoes 6.09639
lfemur -10.4395 -10.0707 -27.3133
ltibia 20.6346
lfoot -12.5354 15.3737
ltoes -11.5779
1450
root 9.43767 15.5939 -3.55906 -2.42503 -2.96155 -357.251
lowerback 10.2242 1.61701 0.181404
upperback -5.18938 2.23046 0.233051
thorax -11.3711 1.06182 -0.292872
lowerneck -10.4035 -3.21549 -8.24933
upperneck 21.6512 -4.20824 5.85618
head 8.76308 -2.07016 2.92199
rclavicle 2.46493e-014 7.55382e-015
rhumerus -34.0483 3.7426 -74.9643
rradius 43.2494
rwrist 17.5828
rhand -17.0263 -54.4474
rfingers 7.12502
rthumb 9.20996 -804.226
lclavicle 2.46493e-014 7.55382e-015
lhumerus -58.7394 24.754 38.6931
lradius 37.3704
lwrist -0.760929
lhand -13.87 -27.0783
lfingers 7.12502
lthumb 12.2545 2.54268
rfemur -4.51596 -1.27979 18.5625
rtibia 63.4778
rfoot 15.105 -6.49398
rtoes 2.63036
lfemur -9.45078 -9.594 -28.1011
ltibia 20.3483
lfoot -12.8666 14.8541
ltoes -11.5693
1451
root 9.4464 15.5849 -3.42053 -2.66418 -2.65266 -356.889
lowerback 10.5954 1.66673 -0.211192
upperback -5.01491 2.2148 0.0238168
thorax -11.4049 1.07315 -0.304147
lowerneck -10.2729 -3.38458 -8.07289
upperneck 21.1961 -4.4439 5.73557
head 8.59588 -2.17866 2.82084
rclavicle 2.18166e-014 4.77083e-015
rhumerus -34.8511 2.31229 -74.4919
rradius 41.8247
rwrist 18.8059
rhand -16.4778 -54.3691
rfingers 7.12502
rthumb 9.73915 -804.124
lclavicle 2.18166e-014 4.77083e-015
lhumerus -57.1883 24.6813 40.0195
lradius 37.0495
lwrist -1.26762
lhand -13.993 -27.47
lfingers 7.12502
lthumb 12.1359 2.15798
rfemur -6.06297 -1.72497 18.0993
rtibia 66.0439
rfoot 13.8398 -6.98099
rtoes 0.740248
lfemur -8.6449 -9.14418 -28.7451
ltibia 20.2947
lfoot -13.402 14.3023
ltoes -9.95845
1452
root 9.45654 15.5713 -3.28063 -2.87303 -2.35654 -356.703
lowerback 10.8642 1.78151 -0.271145
upperback -4.86022 2.32369 -0.307299
thorax -11.38 1.11379 -0.656841
lowerneck -9.93451 -3.6277 -7.71895
upperneck 20.699 -4.87029 5.79922
head 8.38956 -2.34992 2.73567
rclavicle 2.3059e-014 8.34896e-015
rhumerus -35.8407 0.65612 -74.1984
rradius 40.4285
rwrist 20.1955
rhand -14.9991 -54.4572
rfingers 7.12502
rthumb 11.1657 -804.14
lclavicle 2.3059e-014 8.34896e-015
lhumerus -55.1318 24.3677 41.4139
lradius 36.4667
lwrist -2.05658
lhand -14.0815 -27.9192
lfingers 7.12502
lthumb 12.0506 1.71382
rfemur -7.64825 -2.0512 17.8825
rtibia 68.3746
rfoot 12.6113 -7.24606
rtoes -1.20064
lfemur -8.02728 -8.76842 -29.2136
ltibia 20.5994
lfoot -14.0123 13.9668
ltoes -10.1843
1453
root 9.46813 15.5522 -3.14393 -3.01371 -2.14337 -356.773
lowerback 11.1068 1.81407 -0.153637
upperback -4.74008 2.37121 -0.435766
thorax -11.3794 1.12135 -0.877666
lowerneck -9.69627 -3.81252 -7.55391
upperneck 20.4215 -5.15285 5.74774
head 8.26794 -2.47947 2.66108
rclavicle 6.01324e-015 -7.95139e-016
rhumerus -36.6387 -0.335629 -74.0315
rradius 38.7819
rwrist 20.9357
rhand -14.5748 -54.438
rfingers 7.12502
rthumb 11.5748 -804.098
lclavicle 6.01324e-015 -7.95139e-016
lhumerus -53.4338 24.2865 42.7649
lradius 35.9739
lwrist -3.05587
lhand -14.0571 -28.3243
lfingers 7.12502
lthumb 12.074 1.30739
rfemur -9.4011 -2.24964 18.0084
rtibia 70.4594
rfoot 11.1223 -7.26845
rtoes -4.22364
lfemur -7.57663 -8.55239 -29.3788
ltibia 21.1742
lfoot -14.8452 13.7566
ltoes -9.70785
